<?xml version="1.0" encoding="utf-8"?>
<!-- Generator: Adobe Illustrator 19.2.1, SVG Export Plug-In . SVG Version: 6.00 Build 0)  -->
<svg version="1.0" id="Слой_1" xmlns="http://www.w3.org/2000/svg" xmlns:xlink="http://www.w3.org/1999/xlink" x="0px" y="0px"
	 viewBox="0 0 208.3333282 89.989212" style="enable-background:new 0 0 208.3333282 89.989212;" xml:space="preserve">
<style type="text/css">
	.st0{clip-path:url(#SVGID_2_);}
	.st1{clip-path:url(#SVGID_4_);fill:#FFFFFF;}
	.st2{clip-path:url(#SVGID_4_);fill-rule:evenodd;clip-rule:evenodd;fill:#FFFFFF;}
	.st3{filter:url(#Adobe_OpacityMaskFilter);}
	.st4{enable-background:new    ;}
	.st5{clip-path:url(#SVGID_4_);}
	.st6{clip-path:url(#SVGID_7_);fill:#231F20;}
	.st7{clip-path:url(#SVGID_7_);fill:none;stroke:#231F20;stroke-width:3.18806;stroke-miterlimit:10;}
	.st8{clip-path:url(#SVGID_7_);fill-rule:evenodd;clip-rule:evenodd;fill:#231F20;}
	.st9{clip-path:url(#SVGID_4_);mask:url(#SVGID_5_);}
	.st10{clip-path:url(#SVGID_9_);fill:#FFFFFF;}
	.st11{clip-path:url(#SVGID_9_);fill:#DCE0DF;}
	.st12{fill:#FFFFFF;}
	.st13{fill:#FFDE00;}
</style>
<g>
	<defs>
		<rect id="SVGID_1_" y="-3.9892104" width="208.3333282" height="93.9784241"/>
	</defs>
	<clipPath id="SVGID_2_">
		<use xlink:href="#SVGID_1_"  style="overflow:visible;"/>
	</clipPath>
	<g class="st0">
		<defs>
			<rect id="SVGID_3_" y="-3.9900129" width="208.3333282" height="93.9792252"/>
		</defs>
		<clipPath id="SVGID_4_">
			<use xlink:href="#SVGID_3_"  style="overflow:visible;"/>
		</clipPath>
		<path class="st1" d="M21.3513927,22.4166889c0.1721554-4.1620121,0.4160423-8.28895,1.4585381-12.336194
			C24.9634647,3.8398662,31.37784-2.6334908,37.0238953,4.2814131c2.913887,3.2900763,3.4478836,7.8282795,3.7905998,11.9536314
			c0.1944733,2.0515137,0.3602524,4.1078148,0.420826,6.1816444l-0.1578064,0.0255089
			c-0.8352737-2.8724442-1.5286751-6.1003513-2.1168747-9.0413389c-0.5084953-2.9362011-1.3469543-5.7831435-3.1115456-8.1853466
			c-2.6939125-3.774663-6.6152229-4.1811361-9.4972305-0.3060498C22.872097,9.8748627,23.839674,17.1850872,21.3513927,22.4166889"
			/>
		<path class="st1" d="M58.0792809,76.3363419c-6.3761215,0.2136078-12.752243,0.3411255-19.1283607,0.4319839V75.744957
			c6.3761177,0.0908661,12.7522392,0.2183838,19.1283607,0.4319839V76.3363419z"/>
		<path class="st1" d="M27.7927074,76.8917007c-5.3129025,0.0159454-10.6273975,0.1115875-15.940299,0.0637665v-1.3979645
			c5.3129015-0.047821,10.6273966,0.047821,15.940299,0.0637589V76.8917007z"/>
		<polygon class="st1" points="10.2583799,76.9468536 4.6473947,76.9165726 3.9779017,76.9133835 3.9874661,76.2566452 
			4.1516509,65.92733 5.144732,65.92733 5.308917,76.2566452 4.6473947,75.5967178 10.2583799,75.5664291 		"/>
		<path class="st1" d="M4.1518102,65.9266891c0.1259284-6.3761177,0.2199759-12.7522354,0.2391043-19.1283569H4.905786
			c0.0191288,6.3761215,0.1115823,12.7522392,0.2391047,19.1283569H4.1518102z"/>
		<polygon class="st1" points="4.3647728,35.6401215 4.2117453,22.8241234 4.2069635,22.3953285 4.64851,22.3889484 
			7.7728081,22.337944 7.7728081,23.3118973 4.64851,23.2608852 5.0836802,22.8241234 4.9306531,35.6401215 		"/>
		<polygon class="st1" points="9.3666792,22.3122768 25.3069782,22.1146221 25.3069782,23.5349026 9.3666792,23.3372402 		"/>
		<polygon class="st1" points="25.3069782,22.1149387 44.4353371,21.9953918 44.4353371,23.6531773 25.3069782,23.535223 		"/>
		<polygon class="st1" points="55.593544,21.9969788 58.0786362,22.0033569 58.9043427,22.0049515 58.9011536,22.8242817 
			58.8469543,36.2794914 57.3119087,36.2794914 57.2577095,22.8242817 58.0786362,23.6468048 55.593544,23.6531773 		"/>
		<polygon class="st1" points="58.828949,37.8731995 58.6424484,53.8134995 57.5154648,53.8134995 57.3289642,37.8731995 		"/>
		<path class="st1" d="M58.6430855,53.8134995c-0.1099892,6.3761177-0.2151985,12.7522354-0.3985062,19.1283569h-0.3299675
			c-0.1833153-6.3761215-0.2901192-12.7522392-0.3985062-19.1283569H58.6430855z"/>
		<path class="st1" d="M40.8962708,68.0089722l-6.8096962-11.7926331c0,0-1.0935059,0.72369-2.7162266,0.7380371
			c-1.6227245,0.0143471-2.7560768-0.7364388-2.7560768-0.7364388L21.8125439,68.002594
			c0,0,3.8655224,2.5695801,9.5466461,2.5616074C37.0419044,70.5562363,40.8962708,68.0089722,40.8962708,68.0089722"/>
		<path class="st1" d="M40.9016914,34.963295l-6.8081017,11.7942276c0,0,1.1732025,0.5850105,1.9973183,1.982975
			c0.8241119,1.399559,0.7396317,2.7560768,0.7396317,2.7560768l13.6082344-0.0031853c0,0,0.2917023-4.6322517-2.5568275-9.5482407
			C45.0350075,37.0275688,40.9016914,34.963295,40.9016914,34.963295"/>
		<path class="st2" d="M35.2608986,51.5421638c0,2.1646957-1.7550316,3.9213181-3.9197235,3.9213181
			c-2.1662846,0-3.9213104-1.7566223-3.9213104-3.9213181c0-2.1646919,1.7550259-3.9197197,3.9213104-3.9197197
			C33.505867,47.6224442,35.2608986,49.3774719,35.2608986,51.5421638"/>
		<path class="st1" d="M12.2875795,51.4645348l13.6177969-0.0015945c0,0-0.0797005-1.3071022,0.7189083-2.7210045
			c0.8002033-1.4123154,2.0164452-2.0180435,2.0164452-2.0180435l-6.8065071-11.7830696
			c0,0-4.1572285,2.0626793-6.9914141,6.9866333C12.0086241,46.8530083,12.2875795,51.4645348,12.2875795,51.4645348"/>
		<defs>
			
				<filter id="Adobe_OpacityMaskFilter" filterUnits="userSpaceOnUse" x="13.189147" y="32.1160431" width="35.5913544" height="30.0552731">
				<feFlood  style="flood-color:white;flood-opacity:1" result="back"/>
				<feBlend  in="SourceGraphic" in2="back" mode="normal"/>
			</filter>
		</defs>
		<mask maskUnits="userSpaceOnUse" x="13.189147" y="32.1160431" width="35.5913544" height="30.0552731" id="SVGID_5_">
			<g class="st3">
				<g class="st4">
					<g>
						<defs>
							<rect id="SVGID_6_" x="10.6857548" y="32.8469086" width="41.354538" height="39.310688"/>
						</defs>
						<clipPath id="SVGID_7_" class="st5">
							<use xlink:href="#SVGID_6_"  style="overflow:visible;"/>
						</clipPath>
						<path class="st6" d="M40.8953171,68.0089722l-6.8097-11.7926331c0,0-1.093502,0.72369-2.7162228,0.7364426
							c-1.6227264,0.0143471-2.7560787-0.7348442-2.7560787-0.7348442L21.8115902,68.002594
							c0,0,3.8655205,2.5679855,9.5482388,2.5616074C37.0425415,70.5562363,40.8953171,68.0089722,40.8953171,68.0089722"/>
						<path class="st7" d="M40.8953171,68.0089722l-6.8097-11.7926331c0,0-1.093502,0.72369-2.7162228,0.7364426
							c-1.6227264,0.0143471-2.7560787-0.7348442-2.7560787-0.7348442L21.8115902,68.002594
							c0,0,3.8655205,2.5679855,9.5482388,2.5616074C37.0425415,70.5562363,40.8953171,68.0089722,40.8953171,68.0089722z"/>
						<path class="st6" d="M40.901535,34.9625015l-6.8081017,11.7942276c0,0,1.171608,0.5850067,1.9957237,1.9845657
							c0.8257065,1.3979645,0.7412224,2.7544823,0.7412224,2.7544823l13.6066399-0.0031853
							c0,0,0.2933006-4.6306572-2.5552292-9.5482407C45.0348511,37.0267715,40.901535,34.9625015,40.901535,34.9625015"/>
						<path class="st7" d="M40.901535,34.9625015l-6.8081017,11.7942276c0,0,1.171608,0.5850067,1.9957237,1.9845657
							c0.8257065,1.3979645,0.7412224,2.7544823,0.7412224,2.7544823l13.6066399-0.0031853
							c0,0,0.2933006-4.6306572-2.5552292-9.5482407C45.0348511,37.0267715,40.901535,34.9625015,40.901535,34.9625015z"/>
						<path class="st8" d="M35.2601013,51.54105c0,2.1646957-1.7550316,3.9213142-3.9197216,3.9213142
							s-3.9213123-1.7566185-3.9213123-3.9213142c0-2.1646919,1.7566204-3.9197197,3.9213123-3.9197197
							S35.2601013,49.376358,35.2601013,51.54105"/>
						<circle class="st7" cx="31.3399811" cy="51.5414467" r="3.9205172"/>
						<path class="st6" d="M12.2867832,51.464695l13.6177959-0.0015907c0,0-0.0797005-1.307106,0.7205009-2.7210083
							c0.7986107-1.4139061,2.0148544-2.0196381,2.0148544-2.0196381l-6.8065071-11.7814713
							c0,0-4.1572304,2.0626717-6.9898214,6.9866295C12.0078278,46.8515739,12.2867832,51.464695,12.2867832,51.464695"/>
						<path class="st7" d="M12.2867832,51.464695l13.6177959-0.0015907c0,0-0.0797005-1.307106,0.7205009-2.7210083
							c0.7986107-1.4139061,2.0148544-2.0196381,2.0148544-2.0196381l-6.8065071-11.7814713
							c0,0-4.1572304,2.0626717-6.9898214,6.9866295C12.0078278,46.8515739,12.2867832,51.464695,12.2867832,51.464695z"/>
					</g>
				</g>
			</g>
		</mask>
		<g class="st9">
			<g>
				<defs>
					<rect id="SVGID_8_" x="13.189147" y="32.1162033" width="35.591198" height="30.0551147"/>
				</defs>
				<clipPath id="SVGID_9_">
					<use xlink:href="#SVGID_8_"  style="overflow:visible;"/>
				</clipPath>
				<path class="st10" d="M31.1000023,32.5113602l0.1944714-0.2917061l0.0685406-0.103611l0.0701389,0.103611
					c2.0929623,3.0860443,4.0520229,6.2486,6.015871,9.4095573l-1.0122108,0.5850067
					c-1.7566223-3.2805061-3.5164337-6.559433-5.1423397-9.9148636h0.1386795l-0.1562176,0.3140259L31.1000023,32.5113602z"/>
				<path class="st10" d="M42.3439713,49.847393c1.6147499,2.7481079,3.0908203,5.5775108,4.5860214,8.3957558l-0.8464279,0.4893684
					c-1.6928635-2.703476-3.40485-5.3973846-4.978157-8.1694031L42.3439713,49.847393z"/>
				<polygon class="st11" points="47.6756821,59.6535454 48.4216843,61.0626678 47.7792892,61.4340782 46.9312668,60.0823402 				
					"/>
				<path class="st10" d="M48.4218483,61.0634651l0.0541954,0.1036148l0.3044586,0.5738525l-0.6216698-0.0239105
					c-3.6806145-0.1466522-7.3612328-0.1370888-11.0402527-0.0812988v-0.572258
					c3.6790199,0.0557938,7.3596382,0.0669518,11.0402527-0.0797005l-0.3172112,0.549942l-0.0621719-0.1004257
					L48.4218483,61.0634651z"/>
				<path class="st10" d="M27.5537643,61.9164314c-3.1880589,0.0892677-6.3761196,0.1609993-9.5641785,0.1928749v-1.5191078
					c3.1880589,0.0318832,6.3761196,0.1036148,9.5641785,0.1928787V61.9164314z"/>
				<polygon class="st11" points="16.3955536,62.1300316 14.8015242,62.150753 14.8015242,60.5487556 16.3955536,60.5694771 				"/>
				<path class="st10" d="M14.8015242,62.1505928l-0.2327299,0.0031891l-1.3788357,0.0175362l0.6822453-1.2226219
					c1.7741556-3.180088,3.578598-6.3442383,5.4452057-9.4717255l1.4266567,0.8241119
					c-1.7757492,3.180088-3.6136646,6.3235168-5.4802742,9.451004l-0.6949978-1.2050858l0.2327299,0.0015945V62.1505928z"/>
				<path class="st10" d="M24.2624111,43.2887573c1.6657581-2.7194138,3.3649979-5.4197006,5.0913296-8.1040497l0.4798031,0.2773628
					c-1.4601307,2.8373756-2.9489555,5.6588058-4.4712524,8.4611092L24.2624111,43.2887573z"/>
				<polygon class="st10" points="30.2221699,33.8452415 31.1004791,32.5110435 31.2774162,32.61306 30.5601044,34.0413094 				"/>
			</g>
		</g>
		<g class="st5">
			<path class="st12" d="M75.6012268,45.109642c-1.2819138,0-2.26651-0.0965157-2.9553375-0.2872086
				c-2.3529053-0.64991-3.5289688-2.26651-3.5289688-4.8490257V29.3281212c0-2.0081043,0.9269943-3.3857574,2.7833252-4.1314011
				c0.9176559-0.3821621,1.7590332-0.5829735,2.5249176-0.6024323h1.4056702c0.9752579,0,1.7310181,0.0482578,2.2665176,0.1432133
				c0.4973526,0.1151943,0.7464218,0.3160057,0.7464218,0.6024323v2.8121243c0,0.1914692-0.1151962,0.2872047-0.3448029,0.2872047
				H78.413353c-0.6125488-0.1533318-1.1099091-0.2482891-1.4920654-0.2872047
				c-0.0576019-0.0186806-0.3448029-0.0287991-0.8608398-0.0287991c-1.8750076,0-2.8121262,0.7939014-2.8121262,2.3817043v8.1195908
				c0,1.2819176,0.4397583,2.0758209,1.3200531,2.3817062c0.3440247,0.0957336,0.8896408,0.1432114,1.6352844,0.1432114h1.0328522
				c0.2296066-0.0949554,0.372818-0.1432114,0.4304199-0.1432114c0.0762711-0.0186806,0.3448029-0.028801,0.8032379-0.028801
				c0.3253479,0,0.4973602,0.0101204,0.5168152,0.028801l0.1720123,0.4304161v0.9752541v1.377655
				c-0.0381393,0.2296066-0.0957336,0.4304199-0.1720123,0.6024323c-0.1533279,0.3058853-0.4973526,0.4973526-1.0328522,0.5736313
				c-0.2109299,0.0381393-0.401619,0.0669365-0.5736313,0.0863953c-0.1727905,0.0186806-0.3261185,0.0381393-0.4592133,0.0575981
				H75.6012268z"/>
			<path class="st12" d="M82.8311844,25.3119125l0.4304123-0.430418h3.0985565l0.5168152,0.4319763v6.3667793l0.2296066,0.1727905
				h3.5289688l0.2296066-0.3167839v-6.2227859l0.5168152-0.4319763h3.0985565l0.4592133,0.430418v19.0793228l-0.4592133,0.4311981
				h-3.0985565l-0.5168152-0.4304161v-8.2635841l-0.2296066-0.1432114h-3.7585754v8.2635803
				c0,0.3829422-0.1720123,0.5736313-0.5168152,0.5736313h-3.0985565c-0.2872009,0-0.4304123-0.1914673-0.4304123-0.5744095
				V25.3119125z"/>
			<path class="st12" d="M104.5949783,45.109642c-2.7288361,0-4.5516968-1.0709915-5.4677963-3.2137451
				c-0.3813858-0.9760323-0.5720825-1.8648911-0.5720825-2.6681328v-8.7228012c0-0.7845612,0.1906967-1.6640797,0.5720825-2.6401119
				c0.6491318-1.5675659,1.6796417-2.5537167,3.0923233-2.9553375c0.7814484-0.2101498,1.5737915-0.3152256,2.375473-0.3152256
				c0.9347839,0,1.7162323,0.1050758,2.3482437,0.3152256c1.6967697,0.6125507,2.7739792,1.7411366,3.2316437,3.3857574
				c0.3082199,1.052309,0.4607773,1.8936882,0.4607773,2.5249176v8.4075756c0,0.4397583-0.1058578,1.0328484-0.3144531,1.7784958
				c-0.5354919,1.9512825-1.6625214,3.2238617-3.3779678,3.8161736
				C106.3703613,45.0131264,105.5858002,45.109642,104.5949783,45.109642z M104.6089935,41.436676
				c1.263237,0,1.8952408-0.7440872,1.8952408-2.2330399v-8.7033424c0-1.4889545-0.6320038-2.2338219-1.8952408-2.2338219
				c-1.2819214,0-1.9224854,0.7448673-1.9224854,2.2338219v8.7033424
				C102.6865082,40.6925888,103.3270721,41.436676,104.6089935,41.436676z"/>
			<path class="st12" d="M119.6425323,36.5588531h-1.2624588v7.689949c0,0.3829422-0.1712341,0.5736313-0.5152588,0.5736313
				h-3.0993271c-0.2864304,0-0.4296417-0.1914673-0.4296417-0.5744095V25.3119125
				c0-0.2872047,0.1899109-0.430418,0.5728531-0.430418h6.5131073c0.5744095,0,1.2624588,0.1432133,2.0656967,0.430418
				c2.3723679,0.8810749,3.558548,2.5864067,3.558548,5.1152172c0,2.1645489-0.9464569,3.8597622-2.8409195,5.0856419
				l-0.1432114,0.1439896c0,0.0568199,0.0482559,0.2101517,0.1432114,0.4592209l3.2705612,7.3848381
				c0.0965118,0.2872086,0.1447678,0.5463943,0.1447678,0.7752228c0,0.3642616-0.1058502,0.5463905-0.3160019,0.5463905h-3.5289688
				c-0.2303848,0-0.3829422-0.0957336-0.4592209-0.2872047L119.6425323,36.5588531z M120.8193741,28.5536785h-2.3521271v4.1594219
				l0.1432114,0.1735687h0.8312607c0.8608398,0,1.4632721-0.0583763,1.8088531-0.1735687
				c0.898201-0.2887611,1.3480759-0.9526825,1.3480759-1.9933167
				C122.5986481,29.2759724,122.0055542,28.5536785,120.8193741,28.5536785z"/>
			<path class="st12" d="M130.9486237,25.3119125l0.4296417-0.430418h2.9561157c0.210144,0,0.353363,0.0957355,0.4296417,0.2864265
				l4.2185669,9.1532192v-9.010006l0.5152588-0.4296398h2.9561157l0.4296417,0.430418v19.0793228l-0.4296417,0.4311981h-2.5249176
				c-0.210144,0-0.3549194-0.0957336-0.4311981-0.2872047l-4.6482086-10.1852913v10.0420799l-0.5152588,0.4304161h-2.9561157
				l-0.4296417-0.4311981V25.3119125z"/>
			<path class="st12" d="M152.740448,45.109642c-2.7288513,0-4.551712-1.0709915-5.4670258-3.2137451
				c-0.3829498-0.9760323-0.5728607-1.8648911-0.5728607-2.6681328v-8.7228012c0-0.7845612,0.1899109-1.6640797,0.5728607-2.6401119
				c0.6475677-1.5675659,1.6796417-2.5537167,3.0915375-2.9553375c0.7814484-0.2101498,1.5738068-0.3152256,2.3754883-0.3152256
				c0.9355621,0,1.7170105,0.1050758,2.3474579,0.3152256c1.6983185,0.6125507,2.7755432,1.7411366,3.2332001,3.3857574
				c0.3066711,1.052309,0.4592133,1.8936882,0.4592133,2.5249176v8.4075756c0,0.4397583-0.1058502,1.0328484-0.3144379,1.7784958
				c-0.5354919,1.9512825-1.660965,3.2238617-3.3779755,3.8161736
				C154.5150452,45.0131264,153.7320404,45.109642,152.740448,45.109642z M152.7544556,41.436676
				c1.2624664,0,1.8944702-0.7440872,1.8944702-2.2330399v-8.7033424c0-1.4889545-0.6320038-2.2338219-1.8944702-2.2338219
				c-1.2811432,0-1.9224854,0.7448673-1.9224854,2.2338219v8.7033424
				C150.8319702,40.6925888,151.4733124,41.436676,152.7544556,41.436676z"/>
			<path class="st12" d="M175.621933,39.2192001c0,0.9386749-0.1525574,1.7722702-0.4592133,2.5000114
				c-0.8406067,2.0688171-2.4673309,3.1032219-4.8770447,3.1032219h-7.3739471
				c-0.2864227,0-0.4296417-0.1914673-0.4296417-0.5744095V25.3119125c0-0.2872047,0.143219-0.430418,0.4296417-0.430418h6.79953
				c0.0576019,0,0.3549194,0.0474777,0.8904114,0.1432133c0.4389801,0.0957355,0.9277802,0.239727,1.4632721,0.4311981
				c1.7792816,0.6514664,2.6681366,2.1357498,2.6681366,4.4536324c0,1.5325413-0.7363129,2.8642731-2.2089081,3.9944153
				c-0.0389252,0.0186806-0.0965271,0.0669365-0.1727905,0.1432114c0.0575867,0.0575981,0.3066559,0.2015915,0.745636,0.4311981
				c0.0762787,0.0381393,0.1541138,0.0817261,0.2303925,0.1292038s0.1525574,0.1004066,0.2288208,0.1580009
				c0.1914825,0.1533318,0.3486938,0.2825356,0.4732361,0.3876114c0.124527,0.105854,0.2054749,0.1774597,0.2444,0.2155991
				C175.1736145,36.2693138,175.621933,37.5527878,175.621933,39.2192001z M166.7566986,28.5824757l-0.143219,0.1432152v3.5577679
				l0.143219,0.1439934c0.0576019,0.0194588,0.3160095,0.0287971,0.7752228,0.0287971
				c0.8032379,0,1.3760986-0.0575981,1.7216797-0.1727905c0.8032379-0.2482872,1.2048645-0.8795185,1.2048645-1.8936882
				c0-1.1278076-0.546402-1.7310181-1.6360626-1.8072948c-0.1151886-0.0186787-0.5261536-0.0287971-1.234436-0.0287971
				C167.0913849,28.5536785,166.8143005,28.563797,166.7566986,28.5824757z M166.7566986,36.2724266l-0.143219,0.1424332v4.5633774
				l0.143219,0.1432152c0.0576019,0.0186806,0.353363,0.028019,0.888855,0.028019c0.3440247,0,0.6273499,0,0.8468323,0
				c0.2194977,0,0.3782654-0.0093384,0.4732361-0.028019c1.4928436-0.0762787,2.2384796-0.8841896,2.2384796-2.4245148
				c0-1.0842209-0.5448303-1.8446541-1.6360626-2.2820778c-0.3253326-0.1144142-0.9651337-0.1712341-1.9224854-0.1712341
				C167.1100616,36.2436256,166.8143005,36.2529678,166.7566986,36.2724266z"/>
			<path class="st12" d="M178.4052582,25.2255173c0-0.2288303,0.0965118-0.3440228,0.2864227-0.3440228h3.844986
				c0.1541138,0,0.3455811,0.296545,0.5744019,0.8888588c0.4203033,1.129364,0.7938995,2.1092873,1.1192474,2.9413261
				c0.3253479,0.8320408,0.5930939,1.5255375,0.8032379,2.0804901c0.0762787,0.190691,0.1727905,0.3821621,0.286438,0.5736332
				l2.9561157-6.4843082h3.9881897c0.210144,0,0.3159943,0.1151924,0.3159943,0.3440228
				c0,0.1727905-0.0575867,0.3549213-0.1727905,0.5463924l-5.0778503,10.3440723v8.1320419
				c0,0.3829422-0.1727905,0.5744095-0.5168152,0.5744095h-3.0993347c-0.3440247,0-0.5168152-0.1914673-0.5168152-0.5744095
				v-8.24646l-4.6482086-10.2296543C178.4535217,25.5228424,178.4052582,25.3407116,178.4052582,25.2255173z"/>
			<path class="st12" d="M195.3340454,25.3119125l0.4296417-0.430418h3.0993347l0.5152588,0.4311962v15.8943787h5.825058
				l0.3159943,0.3728218v2.8121262c0,0.2872047-0.1541138,0.4304161-0.4592133,0.4304161h-9.2964325
				c-0.2864227,0-0.4296417-0.1914673-0.4296417-0.5744095V25.3119125z"/>
		</g>
	</g>
	<g class="st0">
		<path class="st13" d="M69.1169205,57.0298386c0-2.6214294,1.2235413-4.2948494,3.6721802-5.0218163
			c0.7464294-0.2101517,1.625946-0.3160019,2.6401138-0.3160019c1.3955536,0,2.6393356,0.1525536,3.7297821,0.4561043
			c0.4778976,0.133873,0.7176285,0.3237839,0.7176285,0.5697403v2.7926636c0,0.2101517-0.162674,0.3144493-0.4880219,0.3144493
			c-0.133873,0-0.2109299-0.0093422-0.2296066-0.028019c-1.0709915-0.2148209-1.8648911-0.3502541-2.3817062-0.4047356
			c-0.0568161-0.0186806-0.3346863-0.0264626-0.8320389-0.0264626c-0.5549545,0-0.8701782,0.0093384-0.9464569,0.028019
			c-0.8802948,0.0575981-1.3200531,0.4778976-1.3200531,1.2624588c0,0.3642616,0.1533279,0.7269669,0.4592133,1.0912247
			c0.1338806,0.2101517,0.4778976,0.5059204,1.0328522,0.8888588c0.5736313,0.3642616,1.0663223,0.6989441,1.4780579,1.0040512
			c0.410965,0.3066673,0.7503204,0.5650711,1.0180664,0.7752228c1.4920654,1.2437782,2.429184,2.5249176,2.8121185,3.8449783
			c0.2101517,0.7456436,0.3152313,1.5006256,0.3152313,2.26651c0,2.3910446-1.2430038,4.1407394-3.7297821,5.2506485
			c-0.5549545,0.2475052-1.243782,0.3922806-2.0657043,0.4296341h-1.1480408c-1.5683441,0-2.9078598-0.1432114-4.0169907-0.4296341
			c-0.3829346-0.0965195-0.5736313-0.2397308-0.5736313-0.4311981v-3.3857574c0-0.1136398,0.1720123-0.1712341,0.5168152-0.1712341
			h0.2008133c0.1906891,0.0762787,0.3627014,0.1432114,0.516037,0.2008057
			c0.1533279,0.0576019,0.2770844,0.0949631,0.372818,0.1151962c0.0762787,0.0186844,0.1766815,0.0373611,0.3019943,0.0560379
			c0.1237564,0.0202408,0.2724152,0.0482559,0.4444275,0.0871735c0.3253479,0.0373611,0.6405716,0.0716095,0.9464569,0.0996323
			c0.3058853,0.0295715,0.6125488,0.0435867,0.9184341,0.0435867c0.5930939,0,1.0515289-0.0482559,1.377655-0.143219
			c0.898201-0.3440247,1.3480759-0.9480057,1.3480759-1.8088455c0-0.8795242-0.4973526-1.7014389-1.4920654-2.4673233
			c-1.3963318-0.9371147-2.429184-1.6827621-3.0985565-2.2369347
			C69.9489594,60.3766785,69.1169205,58.8091125,69.1169205,57.0298386z"/>
		<path class="st13" d="M84.8688583,52.4112015l0.4304199-0.4311981h3.0985565l0.5168152,0.4311981v6.3683357l0.2296066,0.1727905
			h3.5289688l0.2296066-0.3175621v-6.2235641l0.5168152-0.4311981h3.0985565l0.4592133,0.4311981v19.0785446l-0.4592133,0.4311981
			h-3.0985565l-0.5168152-0.4296417V63.226944l-0.2296066-0.1432152H88.91465v8.2628059
			c0,0.3829346-0.1720123,0.5744095-0.5168152,0.5744095h-3.0985565c-0.2872009,0-0.4304199-0.1914749-0.4304199-0.5744095
			V52.4112015z"/>
		<path class="st13" d="M106.6318817,72.2073669c-2.7288361,0-4.5516968-1.0709839-5.4677963-3.2129593
			c-0.3813858-0.9760361-0.5720825-1.8648911-0.5720825-2.6681366v-8.7235756c0-0.7830048,0.1906967-1.6640816,0.5720825-2.6385574
			c0.6491241-1.5691223,1.6796417-2.554493,3.0923233-2.9561157c0.7814484-0.2101517,1.5737915-0.3160019,2.375473-0.3160019
			c0.9355621,0,1.7170105,0.1058502,2.3474579,0.3160019c1.6983261,0.613327,2.7755432,1.7403564,3.2332077,3.3857574
			c0.3066635,1.0523071,0.4592133,1.8944664,0.4592133,2.5249176v8.4075737c0,0.4405365-0.1058502,1.032074-0.3144455,1.779274
			c-0.5354919,1.9505081-1.660965,3.2223053-3.3779755,3.8153992
			C108.4064865,72.1124115,107.6234818,72.2073669,106.6318817,72.2073669z M106.6458969,68.5351868
			c1.2624588,0,1.8944626-0.7440872,1.8944626-2.2338181v-8.7033463c0-1.4881744-0.6320038-2.2322617-1.8944626-2.2322617
			c-1.2811432,0-1.922493,0.7440872-1.922493,2.2322617v8.7033463
			C104.7234039,67.7910995,105.3647537,68.5351868,106.6458969,68.5351868z"/>
		<path class="st13" d="M120.64814,63.9725876l-0.2303848,0.1432114v7.2307358c0,0.3829346-0.1712341,0.5744095-0.5152588,0.5744095
			h-3.0993347c-0.2864227,0-0.4296341-0.1914749-0.4296341-0.5744095V52.4112015
			c0-0.2879868,0.1899109-0.4311981,0.5728531-0.4311981h6.5131073c2.7739868,0,4.5906219,1.2235413,5.4514618,3.672184
			c0.210144,0.633564,0.3159943,1.401001,0.3159943,2.3038712c0,2.5529366-1.1861725,4.3571205-3.5569839,5.4125404
			c-0.5557327,0.2303886-1.1970825,0.3751564-1.922493,0.4311981
			C122.7138443,63.8963089,121.6802139,63.953907,120.64814,63.9725876z M123.000267,55.6521873h-2.4953384v4.3322105
			l0.1432114,0.1432152c0.0762787,0.020237,0.1914673,0.0295753,0.3440247,0.0295753c0.1525497,0,0.3346863,0,0.5448303,0
			c0.3440247,0,0.6273422,0,0.8468323,0s0.378273-0.0093384,0.4732285-0.0295753
			c1.2811356-0.133873,1.9224854-0.9044266,1.9224854-2.3100967
			C124.779541,56.3744812,124.1864471,55.6521873,123.000267,55.6521873z"/>
	</g>
</g>
</svg>
